# xmcd CD database file
#
# Track frame offsets:
#	150
#	26552
#	54275
#	79070
#	114137
#	142727
#
# Disc length: 2152 seconds
#
# Revision: 0
# Processed by: cddbd v1.5.1PL0 Copyright (c) Steve Scherf et al.
# Submitted via: CDex 1.51
#
DISCID=3a086606
DTITLE=The Timeless All-Stars - Timeless Hart
DYEAR=2000
DGENRE=Jazz
TTITLE0=Hindsight
TTITLE1=Tayamisha
TTITLE2=Hand In Glove
TTITLE3=Fiesta Espagnol
TTITLE4=World Peace
TTITLE5=Christina
EXTD=YEAR: 2000
EXTT0=
EXTT1=
EXTT2=
EXTT3=
EXTT4=
EXTT5=
PLAYORDER=
